<?xml version="1.0" encoding="UTF-8" standalone="no"?><svg width="1000" height="750" xmlns="http://www.w3.org/2000/svg">

<!-- Most SVG code was produced by spreadsheet; then used manual-edit grouping (<g>) to optimize code -->
<path d="M0,0 h1000 v750 h-1000 z" fill="#fafafa"/><path d="M150,75 h800 v600 h-800 z" fill="white"/>      <g font-family="Liberation Sans,sans-serif" font-size="40px" text-anchor="middle" fill="black"> <switch>
<text x="550" y="46" systemLanguage="cs">Změna průměrné globální teploty</text>
<text x="550" y="46" systemLanguage="ja">世界の平均気温変化</text>
<text x="550" y="46" >Global average temperature change</text>
 </switch>
 <switch>
<text transform="translate(50,375) rotate(-90)" systemLanguage="cs">Změna teploty (°C)</text>
<text transform="translate(50,375) rotate(-90)" systemLanguage="ja">気温の変化 (°C)</text>
<text transform="translate(50,375) rotate(-90)" >Temperature change (°C)</text>
 </switch>
<g transform="translate(105,0)" font-size="35"><text y="158.75">1.0</text><text y="308.75">0.5</text><text y="458.75">0.0</text><text y="608.75">-0.5</text></g><g transform="translate(0,725)" font-size="35"><text x="150">1850</text><text x="264.29">1875</text><text x="378.57">1900</text><text x="492.86">1925</text><text x="607.14">1950</text><text x="721.43">1975</text><text x="835.71">2000</text><text x="950">2025</text></g><!-- gridlines --><g stroke="black" stroke-width="0.25"><path d="
M140,75 h810M140,150 h810M140,225 h810M140,300 h810M140,375 h810M140,450 h810M140,525 h810M140,600 h810M140,675 h810M150,75 v610M264.29,75 v610M378.57,75 v610M492.86,75 v610M607.14,75 v610M721.43,75 v610M835.71,75 v610M950,75 v610
"/></g><!-- FIRST TRACE pixel coordinates arranged in groups of 10 to save vertical space in SVG file --><path d="M287.143,498 L291.714,474 L296.286,483 L300.857,501 L305.429,534 L310,549 L314.571,543 L319.143,558 L323.714,501 L328.286,480 L332.857,555 L337.429,516 L342,531 L346.571,543 L351.143,540 L355.714,516 L360.286,483 L364.857,483 L369.429,531 L374,501 L378.571,474 L383.143,495 L387.714,534 L392.286,561 L396.857,591 L401.429,528 L406,516 L410.571,564 L415.143,579 L419.714,594 L424.286,579 L428.857,582 L433.429,558 L438,552 L442.571,495 L447.143,492 L451.714,558 L456.286,588 L460.857,540 L465.429,534 L470,531 L474.571,507 L479.143,537 L483.714,531 L488.286,531 L492.857,516 L497.429,483 L502,516 L506.571,510 L511.143,558 L515.714,498 L520.286,477 L524.857,498 L529.429,537 L534,489 L538.571,510 L543.143,495 L547.714,459 L552.286,450 L556.857,456 L561.429,411 L566,393 L570.571,429 L575.143,423 L579.714,390 L584.286,423 L588.857,471 L593.429,459 L598,483 L602.571,483 L607.143,501 L611.714,471 L616.286,447 L620.857,426 L625.429,489 L630,492 L634.571,507 L639.143,435 L643.714,432 L648.286,441 L652.857,459 L657.429,432 L662,441 L666.571,435 L671.143,510 L675.714,483 L680.286,468 L684.857,456 L689.429,474 L694,435 L698.571,441 L703.143,474 L707.714,447 L712.286,402 L716.857,471 L721.429,453 L726,480 L730.571,396 L735.143,429 L739.714,402 L744.286,372 L748.857,354 L753.429,408 L758,357 L762.571,402 L767.143,414 L771.714,396 L776.286,354 L780.857,333 L785.429,369 L790,315 L794.571,330 L799.143,384 L803.714,381 L808.286,357 L812.857,315 L817.429,351 L822,312 L826.571,267 L831.143,336 L835.714,333 L840.286,291 L844.857,261 L849.429,264 L854,291 L858.571,249 L863.143,261 L867.714,252 L872.286,288 L876.857,255 L881.429,234 L886,267 L890.571,255 L895.143,249 L899.714,228 L904.286,180 L908.857,147 L913.429,174 L918,195 L922.571,159 L927.143,144 L931.714,195 L936.286,183 " stroke="orange" stroke-width="2" fill="none" stroke-linecap="round" stroke-linejoin="round"/><!-- SECOND TRACE pixel coordinates arranged in groups of 10 to save vertical space in SVG file --><path d="M150,552.316 L154.571,497.023 L159.143,495.838 L163.714,508.125 L168.286,514.507 L172.857,516.104 L177.429,523.124 L182,567.187 L186.571,543.648 L191.143,511.377 L195.714,544.068 L200.286,555.801 L204.857,587.938 L209.429,530.321 L214,566.649 L218.571,526.795 L223.143,529.396 L227.714,534.107 L232.286,532.606 L236.857,521.989 L241.429,525.385 L246,537.592 L250.571,525.431 L255.143,529.418 L259.714,538.994 L264.286,539.706 L268.857,554.251 L273.429,457.351 L278,430.413 L282.571,518.109 L287.143,521.768 L291.714,496.692 L296.286,515.677 L300.857,530.961 L305.429,574.714 L310,568.355 L314.571,553.289 L319.143,576.654 L323.714,540.832 L328.286,501.987 L332.857,579.076 L337.429,547.413 L342,579.286 L346.571,575.404 L351.143,572.147 L355.714,561.644 L360.286,512.22 L364.857,504.958 L369.429,572.756 L374,533.648 L378.571,497.362 L383.143,515.047 L387.714,558.714 L392.286,587.016 L396.857,606.287 L401.429,549.344 L406,522.76 L410.571,578.266 L415.143,581.179 L419.714,587.748 L424.286,586.325 L428.857,588.78 L433.429,569.72 L438,567.164 L442.571,505.796 L447.143,484.571 L451.714,553.081 L456.286,589.924 L460.857,554.394 L465.429,524.674 L470,516.592 L474.571,499.221 L479.143,528.787 L483.714,522.397 L488.286,520.637 L492.857,511.746 L497.429,463.869 L502,495.84 L506.571,489.047 L511.143,544.845 L515.714,480.06 L520.286,458.038 L524.857,470.657 L529.429,523.722 L534,479.319 L538.571,488.836 L543.143,477.875 L547.714,432.778 L552.286,430.678 L556.857,439.257 L561.429,404.237 L566,415.579 L570.571,426.596 L575.143,425.094 L579.714,383.787 L584.286,414.092 L588.857,462.662 L593.429,454.38 L598,464.417 L602.571,470.159 L607.143,495.005 L611.714,445.364 L616.286,422.412 L620.857,403.729 L625.429,462.043 L630,486.211 L634.571,505.968 L639.143,437.619 L643.714,432.308 L648.286,441.42 L652.857,461.664 L657.429,433.017 L662,446.235 L666.571,438.06 L671.143,518.778 L675.714,488.335 L680.286,471.684 L684.857,462.273 L689.429,477.608 L694,436.428 L698.571,452.55 L703.143,488.798 L707.714,455.166 L712.286,412.038 L716.857,478.779 L721.429,460.244 L726,491.777 L730.571,396.092 L735.143,425.441 L739.714,399.761 L744.286,368.197 L748.857,352.015 L753.429,416.739 L758,359.867 L762.571,412.617 L767.143,412.099 L771.714,398.312 L776.286,354.11 L780.857,342.373 L785.429,373.243 L790,318.849 L794.571,325.349 L799.143,389.549 L803.714,377.321 L808.286,356.953 L812.857,313.958 L817.429,344.011 L822,300.326 L826.571,253.823 L831.143,329.673 L835.714,327.693 L840.286,280.234 L844.857,263.978 L849.429,263.767 L854,286.807 L858.571,244.959 L863.143,255.252 L867.714,249.508 L872.286,287.323 L876.857,247.984 L881.429,222.907 L886,265.709 L890.571,253.736 L895.143,239.946 L899.714,225.157 L904.286,179.484 L908.857,147.14 L913.429,173.466 L918,198.222 L922.571,159.696 L927.143,150.18 L931.714,198.461 L936.286,186.646 " stroke="green" stroke-width="2" fill="none" stroke-linecap="round" stroke-linejoin="round"/><!-- THIRD TRACE pixel coordinates arranged in groups of 10 to save vertical space in SVG file --><path d="M287.143,497.9 L291.714,485.9 L296.286,488.9 L300.857,515.9 L305.429,539.9 L310,536.9 L314.571,533.9 L319.143,545.9 L323.714,500.9 L328.286,485.9 L332.857,560.9 L337.429,536.9 L342,548.9 L346.571,557.9 L351.143,554.9 L355.714,533.9 L360.286,488.9 L364.857,488.9 L369.429,542.9 L374,506.9 L378.571,482.9 L383.143,506.9 L387.714,539.9 L392.286,572.9 L396.857,596.9 L401.429,542.9 L406,521.9 L410.571,572.9 L415.143,587.9 L419.714,593.9 L424.286,581.9 L428.857,593.9 L433.429,563.9 L438,557.9 L442.571,503.9 L447.143,488.9 L451.714,557.9 L456.286,581.9 L460.857,551.9 L465.429,536.9 L470,530.9 L474.571,509.9 L479.143,536.9 L483.714,536.9 L488.286,533.9 L492.857,515.9 L497.429,482.9 L502,512.9 L506.571,515.9 L511.143,560.9 L515.714,494.9 L520.286,479.9 L524.857,500.9 L529.429,539.9 L534,494.9 L538.571,509.9 L543.143,497.9 L547.714,464.9 L552.286,467.9 L556.857,458.9 L561.429,413.9 L566,380.9 L570.571,428.9 L575.143,428.9 L579.714,377.9 L584.286,407.9 L588.857,464.9 L593.429,470.9 L598,476.9 L602.571,482.9 L607.143,506.9 L611.714,461.9 L616.286,449.9 L620.857,422.9 L625.429,491.9 L630,500.9 L634.571,515.9 L639.143,440.9 L643.714,425.9 L648.286,437.9 L652.857,446.9 L657.429,434.9 L662,428.9 L666.571,425.9 L671.143,503.9 L675.714,482.9 L680.286,464.9 L684.857,461.9 L689.429,470.9 L694,431.9 L698.571,443.9 L703.143,482.9 L707.714,449.9 L712.286,404.9 L716.857,479.9 L721.429,458.9 L726,482.9 L730.571,398.9 L735.143,425.9 L739.714,392.9 L744.286,377.9 L748.857,365.9 L753.429,404.9 L758,353.9 L762.571,410.9 L767.143,413.9 L771.714,389.9 L776.286,347.9 L780.857,344.9 L785.429,374.9 L790,326.9 L794.571,344.9 L799.143,392.9 L803.714,377.9 L808.286,359.9 L812.857,320.9 L817.429,365.9 L822,308.9 L826.571,266.9 L831.143,329.9 L835.714,335.9 L840.286,290.9 L844.857,275.9 L849.429,269.9 L854,287.9 L858.571,260.9 L863.143,272.9 L867.714,275.9 L872.286,299.9 L876.857,269.9 L881.429,245.9 L886,290.9 L890.571,272.9 L895.143,260.9 L899.714,239.9 L904.286,182.9 L908.857,164.9 L913.429,188.9 L918,215.9 L922.571,179.9 L927.143,167.9 L931.714,209.9 L936.286,203.9 " stroke="purple" stroke-width="2" fill="none" stroke-linecap="round" stroke-linejoin="round"/><!-- FOURTH TRACE pixel coordinates arranged in groups of 10 to save vertical space in SVG file --><path d="M337.429,520.7 L342,553.7 L346.571,568.7 L351.143,544.7 L355.714,532.7 L360.286,469.7 L364.857,472.7 L369.429,523.7 L374,496.7 L378.571,472.7 L383.143,496.7 L387.714,535.7 L392.286,553.7 L396.857,568.7 L401.429,532.7 L406,508.7 L410.571,559.7 L415.143,568.7 L419.714,568.7 L424.286,562.7 L428.857,565.7 L433.429,544.7 L438,535.7 L442.571,484.7 L447.143,469.7 L451.714,541.7 L456.286,559.7 L460.857,520.7 L465.429,505.7 L470,493.7 L474.571,472.7 L479.143,499.7 L483.714,496.7 L488.286,499.7 L492.857,475.7 L497.429,439.7 L502,472.7 L506.571,481.7 L511.143,511.7 L515.714,454.7 L520.286,433.7 L524.857,454.7 L529.429,484.7 L534,451.7 L538.571,463.7 L543.143,445.7 L547.714,418.7 L552.286,418.7 L556.857,442.7 L561.429,451.7 L566,421.7 L570.571,430.7 L575.143,433.7 L579.714,394.7 L584.286,433.7 L588.857,460.7 L593.429,460.7 L598,439.7 L602.571,439.7 L607.143,475.7 L611.714,436.7 L616.286,430.7 L620.857,409.7 L625.429,478.7 L630,487.7 L634.571,514.7 L639.143,433.7 L643.714,418.7 L648.286,436.7 L652.857,457.7 L657.429,433.7 L662,433.7 L666.571,421.7 L671.143,496.7 L675.714,475.7 L680.286,451.7 L684.857,451.7 L689.429,466.7 L694,430.7 L698.571,445.7 L703.143,484.7 L707.714,448.7 L712.286,409.7 L716.857,490.7 L721.429,475.7 L726,508.7 L730.571,421.7 L735.143,442.7 L739.714,403.7 L744.286,400.7 L748.857,388.7 L753.429,427.7 L758,379.7 L762.571,439.7 L767.143,439.7 L771.714,412.7 L776.286,367.7 L780.857,370.7 L785.429,391.7 L790,343.7 L794.571,358.7 L799.143,403.7 L803.714,391.7 L808.286,367.7 L812.857,331.7 L817.429,370.7 L822,313.7 L826.571,268.7 L831.143,337.7 L835.714,343.7 L840.286,301.7 L844.857,286.7 L849.429,283.7 L854,301.7 L858.571,268.7 L863.143,280.7 L867.714,286.7 L872.286,310.7 L876.857,277.7 L881.429,253.7 L886,301.7 L890.571,283.7 L895.143,265.7 L899.714,247.7 L904.286,196.7 L908.857,181.7 L913.429,208.7 L918,238.7 L922.571,193.7 L927.143,184.7 L931.714,220.7 L936.286,214.7 " stroke="blue" stroke-width="2" fill="none" stroke-linecap="round" stroke-linejoin="round"/><!-- FIFTH TRACE pixel coordinates arranged in groups of 10 to save vertical space in SVG file --><path d="M150,590.25 L154.571,555.45 L159.143,547.95 L163.714,549.75 L168.286,546.45 L172.857,544.35 L177.429,580.05 L182,622.95 L186.571,560.85 L191.143,527.55 L195.714,573.45 L200.286,595.95 L204.857,625.95 L209.429,557.25 L214,563.55 L218.571,532.65 L223.143,521.25 L227.714,508.35 L232.286,522.45 L236.857,524.25 L241.429,544.35 L246,553.95 L250.571,543.15 L255.143,533.85 L259.714,548.25 L264.286,561.75 L268.857,563.55 L273.429,448.95 L278,424.05 L282.571,526.65 L287.143,549.45 L291.714,514.95 L296.286,530.25 L300.857,547.05 L305.429,598.05 L310,588.15 L314.571,597.15 L319.143,607.35 L323.714,544.65 L328.286,506.25 L332.857,593.85 L337.429,559.35 L342,577.65 L346.571,571.65 L351.143,568.35 L355.714,546.15 L360.286,519.75 L364.857,514.65 L369.429,577.35 L374,525.45 L378.571,492.75 L383.143,515.25 L387.714,564.15 L392.286,594.15 L396.857,611.25 L401.429,556.65 L406,531.75 L410.571,582.75 L415.143,588.75 L419.714,607.95 L424.286,595.95 L428.857,599.85 L433.429,578.85 L438,570.15 L442.571,514.35 L447.143,498.75 L451.714,568.95 L456.286,613.95 L460.857,563.85 L465.429,544.35 L470,527.55 L474.571,511.05 L479.143,537.75 L483.714,527.55 L488.286,530.25 L492.857,517.35 L497.429,476.25 L502,511.65 L506.571,508.35 L511.143,563.25 L515.714,494.55 L520.286,475.65 L524.857,487.95 L529.429,545.85 L534,501.75 L538.571,520.35 L543.143,499.65 L547.714,451.65 L552.286,450.15 L556.857,456.75 L561.429,431.85 L566,445.05 L570.571,442.35 L575.143,426.15 L579.714,394.65 L584.286,432.75 L588.857,476.55 L593.429,455.85 L598,484.35 L602.571,487.05 L607.143,506.25 L611.714,452.85 L616.286,431.25 L620.857,409.05 L625.429,466.65 L630,483.75 L634.571,508.05 L639.143,439.35 L643.714,437.85 L648.286,442.95 L652.857,460.05 L657.429,437.55 L662,454.95 L666.571,442.05 L671.143,521.55 L675.714,485.85 L680.286,467.25 L684.857,457.95 L689.429,481.05 L694,436.35 L698.571,450.15 L703.143,486.15 L707.714,453.15 L712.286,412.35 L716.857,473.85 L721.429,454.35 L726,483.75 L730.571,384.75 L735.143,422.55 L739.714,399.75 L744.286,362.85 L748.857,348.15 L753.429,412.65 L758,358.65 L762.571,408.75 L767.143,409.95 L771.714,393.75 L776.286,352.05 L780.857,338.55 L785.429,372.75 L790,316.65 L794.571,320.55 L799.143,382.95 L803.714,365.85 L808.286,351.45 L812.857,304.05 L817.429,337.35 L822,295.05 L826.571,250.05 L831.143,322.65 L835.714,322.65 L840.286,282.45 L844.857,254.55 L849.429,259.95 L854,285.75 L858.571,235.95 L863.143,250.65 L867.714,246.75 L872.286,285.15 L876.857,244.05 L881.429,223.65 L886,256.65 L890.571,250.65 L895.143,244.95 L899.714,223.35 L904.286,180.15 L908.857,139.05 L913.429,167.85 L918,190.35 L922.571,149.25 L927.143,141.45 L931.714,187.65 L936.286,176.55 " stroke="red" stroke-width="2" fill="none" stroke-linecap="round" stroke-linejoin="round"/><!-- Colored boxes for TRACE LEGENDS --><path d="M190,105 h45 v10 h-45 z" fill="orange"/><path d="M190,142.5 h45 v10 h-45 z" fill="green"/><path d="M190,180 h45 v10 h-45 z" fill="purple"/><path d="M190,217.5 h45 v10 h-45 z" fill="blue"/><path d="M190,255 h45 v10 h-45 z" fill="red"/>   <g text-anchor="start" font-size="30px"><text x="250" y="120" fill="orange">NASA GISS</text><text x="250" y="157.5" fill="green">HadCRUT</text><text x="250" y="195" fill="purple">NOAA</text> <switch fill="blue">
<text x="250" y="232.5" systemLanguage="cs">Japan Meteo.</text>
<text x="250" y="232.5" systemLanguage="ja">日本気象庁</text>
<text x="250" y="232.5">Japan Met.</text>
 </switch>
<text x="250" y="270" fill="red">Berkeley Earth</text>   </g>      </g></svg>